<?xml version="1.0" standalone="no"?>
<!DOCTYPE svg PUBLIC "-//W3C//DTD SVG 20010904//EN"
 "http://www.w3.org/TR/2001/REC-SVG-20010904/DTD/svg10.dtd">
<svg version="1.0" xmlns="http://www.w3.org/2000/svg"
 width="512.000000pt" height="512.000000pt" viewBox="0 0 512.000000 512.000000"
 preserveAspectRatio="xMidYMid meet">

<g transform="translate(0.000000,512.000000) scale(0.100000,-0.100000)"
fill="currentColor" stroke="none">
<path d="M4245 4514 c-46 -14 -73 -38 -312 -282 l-262 -267 -108 39 c-379 135
-677 183 -1077 173 -321 -8 -532 -43 -816 -137 -692 -228 -1250 -686 -1611
-1320 -50 -88 -54 -100 -54 -160 0 -60 4 -72 54 -160 158 -278 368 -539 590
-734 113 -99 284 -229 357 -272 24 -14 44 -29 44 -32 0 -3 -94 -101 -210 -217
-130 -132 -215 -225 -225 -248 -21 -52 -19 -139 5 -186 46 -92 149 -135 250
-105 54 15 82 43 1842 1802 1759 1760 1787 1788 1802 1842 25 84 8 149 -53
210 -33 33 -60 50 -93 58 -57 15 -60 14 -123 -4z m-1342 -779 c130 -20 265
-50 355 -78 l72 -22 -209 -209 -209 -209 -64 26 c-93 40 -181 57 -289 57 -408
0 -739 -330 -739 -737 0 -105 20 -210 56 -292 13 -29 24 -59 24 -65 0 -6 -119
-130 -264 -275 l-265 -265 -78 48 c-325 197 -603 471 -802 791 l-34 55 34 54
c99 164 282 382 434 517 411 364 871 563 1440 623 83 9 444 -4 538 -19z m-333
-858 c0 -1 -75 -76 -166 -167 l-166 -165 6 54 c19 149 152 275 299 280 15 1
27 0 27 -2z"/>
<path d="M4077 3492 l-148 -149 93 -70 c241 -182 467 -427 607 -658 l33 -55
-33 -55 c-18 -30 -63 -95 -99 -145 -344 -467 -831 -792 -1392 -929 -211 -51
-330 -65 -573 -66 -216 0 -313 8 -479 41 l-79 16 -168 -168 c-93 -93 -169
-171 -169 -175 0 -7 196 -61 300 -83 462 -97 969 -76 1419 61 641 193 1191
603 1564 1164 41 63 96 153 121 202 67 127 63 165 -31 327 -128 221 -278 416
-458 595 -117 117 -328 295 -349 295 -6 0 -78 -67 -159 -148z"/>
<path d="M2851 2267 c-332 -333 -429 -436 -416 -441 38 -14 222 -6 301 14 335
86 567 381 563 719 -2 168 41 196 -448 -292z"/>
</g>
</svg>
