<?xml version="1.0" standalone="no"?>
<!DOCTYPE svg PUBLIC "-//W3C//DTD SVG 20010904//EN"
 "http://www.w3.org/TR/2001/REC-SVG-20010904/DTD/svg10.dtd">
<svg version="1.0" xmlns="http://www.w3.org/2000/svg"
 width="350.000000pt" height="153.000000pt" viewBox="0 0 350.000000 153.000000"
 preserveAspectRatio="xMidYMid meet">

<g transform="translate(0.000000,153.000000) scale(0.100000,-0.100000)"
fill="#000000" stroke="none">
<path d="M2720 1504 c-69 -8 -300 -34 -515 -59 -379 -44 -964 -111 -1055 -121
-64 -7 -30 12 37 21 29 4 55 10 58 14 4 8 -67 12 -667 32 l-337 12 -73 -35
c-118 -57 -109 -40 -112 -228 -1 -120 -7 -189 -21 -252 -17 -79 -18 -97 -6
-205 11 -104 10 -130 -4 -213 -21 -116 -15 -224 16 -287 15 -31 20 -57 17 -93
l-3 -50 80 0 c44 0 141 -5 215 -11 321 -25 385 -26 580 -13 107 8 231 19 275
24 319 40 455 52 455 41 0 -5 -34 -14 -76 -20 -204 -30 -73 -39 316 -21 148 7
251 7 330 0 368 -34 734 -18 1044 45 136 28 163 88 186 425 7 91 17 206 24
255 13 102 6 174 -24 243 -11 24 -20 55 -20 67 0 41 -12 57 -56 76 -42 17 -59
39 -31 39 25 0 87 61 87 86 0 78 -48 101 -224 110 -141 7 -143 8 -156 51 -26
80 -30 83 -128 82 -48 -1 -143 -8 -212 -15z m-2377 -280 c8 -9 -40 -70 -74
-95 l-29 -20 0 45 c0 27 6 51 16 60 15 16 75 22 87 10z m391 -3 c8 -12 -30
-58 -40 -49 -9 10 12 58 25 58 5 0 12 -4 15 -9z m148 -121 c161 -46 205 -70
231 -128 19 -43 21 -65 21 -252 0 -300 -7 -311 -251 -381 -132 -38 -207 -40
-321 -10 -131 34 -188 59 -243 106 l-51 44 1 198 c1 108 7 220 13 248 20 93
82 134 292 191 110 29 153 27 308 -16z m516 -316 c32 -22 25 -53 -18 -82 -19
-13 -39 -34 -43 -48 -14 -40 -24 -28 -31 37 -11 109 -11 109 32 109 21 0 48
-7 60 -16z m139 -49 c12 -33 22 -70 22 -82 1 -31 -23 -29 -37 2 -12 27 -42 34
-42 11 0 -22 -31 -49 -42 -38 -9 9 6 79 32 148 16 42 42 26 67 -41z m157 52
c14 -10 18 -29 20 -86 1 -40 -2 -75 -6 -77 -5 -3 -16 8 -26 25 -21 37 -38 40
-46 6 -4 -14 -10 -25 -15 -25 -8 0 -21 80 -21 138 0 30 2 32 38 32 21 0 46 -6
56 -13z m176 -1 c0 -8 -6 -16 -14 -19 -8 -3 -16 -30 -21 -71 -3 -36 -10 -66
-14 -66 -9 0 -21 58 -21 102 0 17 -8 31 -20 38 -35 19 -22 30 35 30 40 0 55
-4 55 -14z m90 -20 c7 -42 28 -44 32 -4 2 22 9 34 21 36 14 3 17 -4 17 -40 0
-24 -7 -52 -15 -62 -8 -11 -15 -27 -15 -37 0 -9 -7 -22 -15 -29 -12 -10 -16
-7 -26 16 -6 16 -17 41 -25 56 -8 14 -14 43 -14 63 0 29 3 36 17 33 11 -2 20
-15 23 -32z m225 24 c6 -9 -9 -18 -60 -35 -19 -7 -19 -7 3 -16 27 -10 28 -25
2 -39 -13 -7 -20 -21 -20 -40 0 -44 -27 -39 -36 6 -9 48 2 106 23 121 20 15
79 17 88 3z m145 -4 c0 -8 -7 -16 -15 -20 -10 -4 -15 -20 -15 -50 0 -30 5 -46
15 -50 22 -8 18 -34 -5 -41 -24 -8 -80 3 -80 15 0 5 8 13 18 19 24 14 24 98
-1 112 -28 16 -10 29 39 29 31 0 44 -4 44 -14z m101 -12 l16 -26 7 26 c3 14
13 26 21 26 12 0 15 -15 15 -72 0 -99 -11 -114 -50 -68 l-30 34 0 -31 c0 -38
-15 -51 -24 -20 -8 29 -8 121 0 141 9 24 27 19 45 -10z m203 7 c29 -32 32 -91
6 -124 -19 -24 -28 -28 -64 -25 l-41 3 -3 83 -3 82 44 0 c31 0 49 -6 61 -19z
m184 7 c-3 -7 -20 -17 -39 -22 -45 -12 -46 -14 -23 -31 19 -15 19 -15 0 -30
-27 -20 -13 -45 25 -45 20 0 29 -4 27 -12 -3 -8 -22 -13 -49 -13 -36 0 -46 4
-57 25 -15 29 -10 103 8 125 16 19 114 21 108 3z m133 -7 c22 -17 23 -22 12
-51 -8 -22 -9 -40 -2 -58 5 -14 8 -31 5 -39 -8 -19 -33 -5 -40 23 -8 31 -24
31 -32 -1 -3 -14 -10 -25 -15 -25 -10 0 -16 24 -24 108 l-6 62 39 0 c24 0 49
-8 63 -19z m-371 -211 c0 -16 -4 -30 -10 -30 -5 0 -10 14 -10 30 0 17 5 30 10
30 6 0 10 -13 10 -30z m400 -180 c0 -20 -5 -30 -15 -30 -18 0 -19 14 -5 41 15
27 20 24 20 -11z m-2115 -120 c8 -14 -38 -30 -86 -30 -43 0 -52 16 -16 30 30
12 94 12 102 0z m-218 -47 c-9 -9 -19 -14 -23 -11 -10 10 6 28 24 28 15 0 15
-1 -1 -17z m2238 -48 c-34 -16 -105 -20 -89 -6 12 12 41 19 84 19 l35 0 -30
-13z"/>
<path d="M590 1054 c-110 -29 -212 -66 -203 -75 20 -20 260 -81 318 -80 52 1
308 61 323 76 9 9 -89 47 -185 71 -107 27 -172 29 -253 8z m138 -65 c2 -9 -5
-19 -14 -23 -21 -8 -50 17 -39 34 10 16 49 8 53 -11z"/>
<path d="M346 903 c-3 -3 -6 -92 -6 -197 0 -239 1 -242 117 -279 126 -41 195
-59 202 -52 6 7 4 445 -3 452 -3 3 -231 66 -277 77 -14 3 -29 3 -33 -1z m122
-181 c4 -28 -24 -40 -45 -19 -14 13 -14 19 -3 32 18 22 44 15 48 -13z m102
-26 c0 -32 -18 -43 -37 -23 -20 20 -10 47 17 47 15 0 20 -7 20 -24z m-112 -88
c17 -17 15 -45 -3 -52 -14 -5 -45 17 -45 33 0 8 22 31 30 31 3 0 11 -5 18 -12z
m112 -47 c0 -28 -24 -45 -40 -26 -16 20 -6 45 20 45 13 0 20 -7 20 -19z"/>
<path d="M953 794 c-8 -21 13 -42 28 -27 13 13 5 43 -11 43 -6 0 -13 -7 -17
-16z"/>
<path d="M845 750 c-4 -7 -3 -16 3 -22 14 -14 45 -2 40 15 -6 16 -34 21 -43 7z"/>
<path d="M902 643 c2 -10 10 -18 18 -18 8 0 16 8 18 18 2 12 -3 17 -18 17 -15
0 -20 -5 -18 -17z"/>
<path d="M952 543 c2 -10 10 -18 18 -18 8 0 16 8 18 18 2 12 -3 17 -18 17 -15
0 -20 -5 -18 -17z"/>
<path d="M842 503 c4 -22 43 -25 43 -3 0 8 -11 16 -23 18 -19 3 -23 0 -20 -15z"/>
<path d="M1340 750 c0 -13 7 -20 20 -20 24 0 27 25 4 34 -23 9 -24 8 -24 -14z"/>
<path d="M1640 745 c0 -10 7 -15 18 -13 21 4 19 22 -2 26 -10 2 -16 -3 -16
-13z"/>
<path d="M2574 746 c-9 -36 -1 -71 16 -71 22 0 27 80 6 88 -11 4 -18 -1 -22
-17z"/>
<path d="M2900 745 c0 -8 7 -15 15 -15 8 0 15 7 15 15 0 8 -7 15 -15 15 -8 0
-15 -7 -15 -15z"/>
</g>
</svg>
