<?xml version="1.0" standalone="no"?>
<!DOCTYPE svg PUBLIC "-//W3C//DTD SVG 20010904//EN"
 "http://www.w3.org/TR/2001/REC-SVG-20010904/DTD/svg10.dtd">
<svg version="1.0" xmlns="http://www.w3.org/2000/svg"
 width="364.000000pt" height="361.000000pt" viewBox="0 0 364.000000 361.000000"
 preserveAspectRatio="xMidYMid meet">

<g transform="translate(0.000000,361.000000) scale(0.100000,-0.100000)"
fill="#000000" stroke="none">
<path d="M2724 2419 c-34 -4 -133 -15 -220 -23 -88 -9 -208 -23 -269 -31 -60
-7 -157 -19 -215 -25 -206 -22 -616 -70 -649 -76 -22 -4 -32 -3 -28 3 4 6 29
13 57 17 104 14 86 22 -52 23 -79 1 -265 7 -414 14 l-272 11 -71 -32 c-81 -38
-92 -51 -80 -93 11 -40 -1 -232 -18 -281 -16 -46 -17 -108 -3 -194 8 -46 7
-79 -1 -120 -7 -32 -14 -78 -16 -104 -6 -55 13 -152 31 -167 9 -8 12 -26 8
-56 l-5 -45 100 0 c55 0 169 -7 254 -16 85 -8 188 -13 229 -10 41 3 145 10
230 17 85 6 164 14 175 19 11 5 79 13 150 19 158 13 158 13 150 1 -3 -5 -25
-10 -48 -11 -23 0 -58 -7 -77 -14 l-35 -13 40 -1 c22 -1 147 4 278 10 199 9
258 8 365 -4 182 -22 405 -16 627 17 127 18 187 32 205 44 50 37 72 119 81
307 5 93 13 188 19 210 5 22 10 58 10 81 0 41 -24 128 -43 151 -5 7 -7 22 -4
32 6 23 -17 46 -55 55 -27 6 -39 26 -16 26 6 0 26 11 44 25 27 21 32 31 29 57
-2 17 -10 37 -18 45 -17 17 -111 33 -197 33 -36 0 -70 4 -76 8 -6 4 -14 24
-18 44 -11 59 -39 66 -182 47z m-1984 -236 c0 -10 -72 -83 -82 -83 -8 0 -1 65
9 83 5 9 73 9 73 0z m310 -1 c0 -5 -7 -17 -15 -28 -14 -19 -14 -19 -15 2 0 11
3 24 7 27 9 10 23 9 23 -1z m123 -96 c194 -56 197 -60 197 -301 0 -241 -3
-245 -198 -302 -136 -40 -157 -39 -312 6 -87 26 -111 37 -138 66 -18 19 -37
35 -43 35 -5 0 -7 5 -3 11 4 6 6 80 5 164 -3 245 10 267 191 320 62 19 129 34
148 34 20 1 88 -14 153 -33z m412 -252 c23 -23 15 -47 -22 -64 -22 -10 -33
-22 -33 -37 0 -13 -4 -23 -10 -23 -6 0 -10 30 -10 70 l0 70 29 0 c16 0 37 -7
46 -16z m112 -54 c17 -56 18 -70 7 -70 -7 0 -16 11 -20 26 -8 31 -38 29 -42
-4 -3 -20 -32 -33 -32 -14 0 7 25 94 35 120 12 31 33 8 52 -58z m128 54 c10
-10 13 -23 9 -33 -8 -20 -8 -39 1 -68 5 -17 3 -23 -8 -23 -8 0 -18 11 -21 25
-4 14 -13 25 -21 25 -9 0 -15 -10 -15 -25 0 -14 -4 -25 -10 -25 -6 0 -10 30
-10 70 l0 70 29 0 c16 0 37 -7 46 -16z m135 6 c0 -6 -7 -13 -15 -16 -11 -5
-15 -21 -15 -60 0 -30 -4 -54 -10 -54 -5 0 -10 21 -10 48 0 48 -10 75 -26 72
-5 -1 -10 3 -12 9 -2 7 14 11 42 11 25 0 46 -5 46 -10z m70 -20 c0 -20 5 -30
15 -30 10 0 15 10 15 30 0 20 5 30 15 30 10 0 15 -10 15 -34 0 -18 -7 -39 -15
-46 -8 -7 -15 -23 -15 -36 0 -15 -6 -24 -15 -24 -9 0 -15 9 -15 24 0 13 -7 29
-15 36 -8 7 -15 28 -15 46 0 24 5 34 15 34 10 0 15 -10 15 -30z m185 15 c0 -5
-15 -11 -32 -13 -32 -3 -47 -22 -18 -22 8 0 15 -7 15 -15 0 -8 -7 -15 -15 -15
-10 0 -15 -10 -15 -31 0 -19 -4 -29 -12 -27 -19 7 -20 105 -1 124 17 16 78 16
78 -1z m115 5 c0 -6 -7 -13 -15 -16 -10 -4 -15 -20 -15 -45 0 -28 4 -39 15
-39 8 0 15 -7 15 -15 0 -11 -11 -15 -40 -15 -40 0 -53 13 -25 24 10 3 15 19
15 46 0 27 -5 43 -15 46 -28 11 -15 24 25 24 22 0 40 -5 40 -10z m83 -22 l16
-33 0 33 c1 21 6 32 16 32 12 0 14 -13 12 -67 -2 -77 -17 -90 -44 -41 l-18 33
-3 -32 c-6 -61 -22 -33 -22 37 0 79 15 93 43 38z m161 10 c36 -51 7 -121 -47
-116 l-32 3 -3 68 -3 67 35 0 c25 0 39 -6 50 -22z m144 10 c-3 -7 -19 -14 -36
-16 -32 -3 -46 -22 -17 -22 8 0 15 -7 15 -15 0 -8 -7 -15 -15 -15 -21 0 -19
-30 3 -32 9 0 23 -2 29 -2 29 -3 15 -21 -17 -24 -41 -4 -60 16 -60 66 0 54 15
72 61 72 28 0 39 -4 37 -12z m116 -10 c8 -13 8 -23 -2 -38 -9 -15 -10 -26 -2
-40 14 -26 13 -40 -4 -40 -8 0 -16 10 -18 22 -4 29 -26 35 -30 8 -7 -47 -23
-21 -26 43 l-3 68 37 -3 c22 -2 42 -10 48 -20z m-304 -163 c0 -14 -4 -25 -8
-25 -7 0 -8 31 -3 48 4 11 11 -3 11 -23z m320 -145 c0 -21 -4 -28 -14 -24 -12
5 -13 11 -4 30 15 31 18 30 18 -6z m-334 -29 c-3 -4 -24 -11 -46 -15 -51 -8
-80 6 -30 15 54 10 82 10 76 0z m-1356 -70 c0 -9 -48 -21 -87 -21 -22 0 -24 2
-13 15 13 16 100 22 100 6z m-175 -31 c-3 -5 -11 -10 -16 -10 -6 0 -7 5 -4 10
3 6 11 10 16 10 6 0 7 -4 4 -10z m1790 -39 c-40 -16 -75 -21 -75 -12 0 9 31
17 75 19 l20 1 -20 -8z"/>
<path d="M871 2037 c-58 -18 -106 -36 -108 -42 -3 -11 228 -76 270 -75 24 0
243 58 256 67 23 16 -199 84 -269 82 -25 0 -92 -15 -149 -32z m177 -34 c5 -17
-26 -29 -40 -15 -6 6 -7 15 -3 22 9 14 37 9 43 -7z"/>
<path d="M730 1776 c0 -206 -3 -201 151 -245 59 -17 110 -31 113 -31 4 0 5 84
4 186 l-3 187 -120 33 c-66 19 -126 34 -132 34 -10 0 -13 -39 -13 -164z m107
18 c9 -23 -13 -40 -32 -24 -12 10 -13 16 -4 26 15 18 28 18 36 -2z m83 -35 c0
-23 -28 -26 -37 -3 -6 16 15 37 29 28 4 -3 8 -14 8 -25z m-83 -75 c3 -8 1 -20
-5 -26 -15 -15 -43 8 -35 28 7 19 32 18 40 -2z m80 -38 c-4 -9 -11 -16 -17
-16 -17 0 -24 31 -9 41 18 11 34 -5 26 -25z"/>
<path d="M1223 1844 c-8 -21 13 -42 28 -27 13 13 5 43 -11 43 -6 0 -13 -7 -17
-16z"/>
<path d="M1135 1810 c-4 -7 -3 -16 3 -22 14 -14 45 -2 40 15 -6 16 -34 21 -43
7z"/>
<path d="M1182 1723 c2 -10 10 -18 18 -18 8 0 16 8 18 18 2 12 -3 17 -18 17
-15 0 -20 -5 -18 -17z"/>
<path d="M1222 1643 c2 -10 10 -18 18 -18 8 0 16 8 18 18 2 12 -3 17 -18 17
-15 0 -20 -5 -18 -17z"/>
<path d="M1135 1620 c-4 -7 -3 -16 3 -22 14 -14 45 -2 40 15 -6 16 -34 21 -43
7z"/>
<path d="M1536 1823 c-13 -14 -5 -33 14 -33 11 0 20 6 20 14 0 15 -24 28 -34
19z"/>
<path d="M1770 1805 c0 -8 9 -15 20 -15 11 0 20 7 20 15 0 8 -9 15 -20 15 -11
0 -20 -7 -20 -15z"/>
<path d="M2527 1823 c-4 -3 -7 -24 -7 -45 0 -32 3 -39 18 -36 22 4 29 60 9 76
-8 7 -17 9 -20 5z"/>
<path d="M2780 1805 c0 -8 7 -15 15 -15 8 0 15 7 15 15 0 8 -7 15 -15 15 -8 0
-15 -7 -15 -15z"/>
</g>
</svg>
